<mxfile host="app.diagrams.net" modified="2020-06-16T23:48:14.973Z" agent="5.0 (Macintosh; Intel Mac OS X 10_14_6) AppleWebKit/537.36 (KHTML, like Gecko) Chrome/81.0.4044.138 Safari/537.36 OPR/68.0.3618.104" etag="AAiK3-PePS8IROZvzS7w" version="13.2.4" type="github">
  <diagram id="zXcW99eozO7Db_UasQsl" name="Page-1">
    <mxGraphModel dx="906" dy="1766" grid="1" gridSize="10" guides="1" tooltips="1" connect="1" arrows="1" fold="1" page="1" pageScale="1" pageWidth="827" pageHeight="1169" math="0" shadow="0">
      <root>
        <mxCell id="0" />
        <mxCell id="1" parent="0" />
        <mxCell id="IaWRKNGKsvZzhaCaoYAj-1" value="" style="edgeStyle=orthogonalEdgeStyle;rounded=0;orthogonalLoop=1;jettySize=auto;html=1;" edge="1" parent="1" source="IaWRKNGKsvZzhaCaoYAj-3" target="IaWRKNGKsvZzhaCaoYAj-7">
          <mxGeometry relative="1" as="geometry" />
        </mxCell>
        <mxCell id="IaWRKNGKsvZzhaCaoYAj-2" value="" style="edgeStyle=orthogonalEdgeStyle;rounded=0;orthogonalLoop=1;jettySize=auto;html=1;" edge="1" parent="1" source="IaWRKNGKsvZzhaCaoYAj-3" target="IaWRKNGKsvZzhaCaoYAj-15">
          <mxGeometry relative="1" as="geometry" />
        </mxCell>
        <mxCell id="IaWRKNGKsvZzhaCaoYAj-23" value="&amp;nbsp;pass on birdies list&amp;nbsp;" style="edgeStyle=orthogonalEdgeStyle;rounded=0;orthogonalLoop=1;jettySize=auto;html=1;exitX=0;exitY=0.5;exitDx=0;exitDy=0;entryX=0;entryY=0.5;entryDx=0;entryDy=0;labelPosition=center;verticalLabelPosition=middle;align=center;verticalAlign=middle;horizontal=0;" edge="1" parent="1" source="IaWRKNGKsvZzhaCaoYAj-3" target="IaWRKNGKsvZzhaCaoYAj-22">
          <mxGeometry x="-0.1622" relative="1" as="geometry">
            <mxPoint as="offset" />
          </mxGeometry>
        </mxCell>
        <mxCell id="IaWRKNGKsvZzhaCaoYAj-3" value="Read in data from all files for one pointing: intensity, mask, list of birdies" style="rounded=1;whiteSpace=wrap;html=1;fontSize=12;glass=0;strokeWidth=1;shadow=0;" vertex="1" parent="1">
          <mxGeometry x="70" y="60" width="270" height="60" as="geometry" />
        </mxCell>
        <mxCell id="IaWRKNGKsvZzhaCaoYAj-4" value="" style="edgeStyle=orthogonalEdgeStyle;rounded=0;orthogonalLoop=1;jettySize=auto;html=1;" edge="1" parent="1" source="IaWRKNGKsvZzhaCaoYAj-5" target="IaWRKNGKsvZzhaCaoYAj-3">
          <mxGeometry relative="1" as="geometry" />
        </mxCell>
        <mxCell id="IaWRKNGKsvZzhaCaoYAj-5" value="Find all HDF5 files associated with one pointing" style="rounded=1;whiteSpace=wrap;html=1;fontSize=12;glass=0;strokeWidth=1;shadow=0;" vertex="1" parent="1">
          <mxGeometry x="70" y="-40" width="270" height="60" as="geometry" />
        </mxCell>
        <mxCell id="IaWRKNGKsvZzhaCaoYAj-6" value="" style="edgeStyle=orthogonalEdgeStyle;rounded=0;orthogonalLoop=1;jettySize=auto;html=1;" edge="1" parent="1" source="IaWRKNGKsvZzhaCaoYAj-7" target="IaWRKNGKsvZzhaCaoYAj-9">
          <mxGeometry relative="1" as="geometry" />
        </mxCell>
        <mxCell id="IaWRKNGKsvZzhaCaoYAj-7" value="Stitch masks together" style="rounded=1;whiteSpace=wrap;html=1;fontSize=12;glass=0;strokeWidth=1;shadow=0;" vertex="1" parent="1">
          <mxGeometry x="430" y="160" width="270" height="60" as="geometry" />
        </mxCell>
        <mxCell id="IaWRKNGKsvZzhaCaoYAj-8" value="" style="edgeStyle=orthogonalEdgeStyle;rounded=0;orthogonalLoop=1;jettySize=auto;html=1;" edge="1" parent="1" source="IaWRKNGKsvZzhaCaoYAj-9" target="IaWRKNGKsvZzhaCaoYAj-11">
          <mxGeometry relative="1" as="geometry" />
        </mxCell>
        <mxCell id="IaWRKNGKsvZzhaCaoYAj-9" value="Compute mask statistics" style="rounded=1;whiteSpace=wrap;html=1;fontSize=12;glass=0;strokeWidth=1;shadow=0;" vertex="1" parent="1">
          <mxGeometry x="430" y="260" width="270" height="60" as="geometry" />
        </mxCell>
        <mxCell id="IaWRKNGKsvZzhaCaoYAj-10" value="" style="edgeStyle=orthogonalEdgeStyle;rounded=0;orthogonalLoop=1;jettySize=auto;html=1;" edge="1" parent="1" source="IaWRKNGKsvZzhaCaoYAj-11" target="IaWRKNGKsvZzhaCaoYAj-13">
          <mxGeometry relative="1" as="geometry" />
        </mxCell>
        <mxCell id="IaWRKNGKsvZzhaCaoYAj-11" value="Decide on further masking - e.g. if number of channels flagged in one subint &amp;gt; threshold, flag whole subint." style="rounded=1;whiteSpace=wrap;html=1;fontSize=12;glass=0;strokeWidth=1;shadow=0;" vertex="1" parent="1">
          <mxGeometry x="430" y="360" width="270" height="60" as="geometry" />
        </mxCell>
        <mxCell id="IaWRKNGKsvZzhaCaoYAj-12" value="" style="edgeStyle=orthogonalEdgeStyle;rounded=0;orthogonalLoop=1;jettySize=auto;html=1;entryX=1;entryY=0.5;entryDx=0;entryDy=0;" edge="1" parent="1" source="IaWRKNGKsvZzhaCaoYAj-13" target="IaWRKNGKsvZzhaCaoYAj-17">
          <mxGeometry relative="1" as="geometry">
            <mxPoint x="350" y="490" as="targetPoint" />
          </mxGeometry>
        </mxCell>
        <mxCell id="IaWRKNGKsvZzhaCaoYAj-13" value="Update mask" style="rounded=1;whiteSpace=wrap;html=1;fontSize=12;glass=0;strokeWidth=1;shadow=0;" vertex="1" parent="1">
          <mxGeometry x="430" y="460" width="270" height="60" as="geometry" />
        </mxCell>
        <mxCell id="IaWRKNGKsvZzhaCaoYAj-14" value="" style="edgeStyle=orthogonalEdgeStyle;rounded=0;orthogonalLoop=1;jettySize=auto;html=1;" edge="1" parent="1" source="IaWRKNGKsvZzhaCaoYAj-15" target="IaWRKNGKsvZzhaCaoYAj-17">
          <mxGeometry relative="1" as="geometry" />
        </mxCell>
        <mxCell id="IaWRKNGKsvZzhaCaoYAj-15" value="Stitch intensity data together" style="rounded=1;whiteSpace=wrap;html=1;fontSize=12;glass=0;strokeWidth=1;shadow=0;" vertex="1" parent="1">
          <mxGeometry x="70" y="160" width="270" height="60" as="geometry" />
        </mxCell>
        <mxCell id="IaWRKNGKsvZzhaCaoYAj-16" value="" style="edgeStyle=orthogonalEdgeStyle;rounded=0;orthogonalLoop=1;jettySize=auto;html=1;" edge="1" parent="1" source="IaWRKNGKsvZzhaCaoYAj-17" target="IaWRKNGKsvZzhaCaoYAj-19">
          <mxGeometry relative="1" as="geometry" />
        </mxCell>
        <mxCell id="IaWRKNGKsvZzhaCaoYAj-17" value="Apply mask" style="rounded=1;whiteSpace=wrap;html=1;fontSize=12;glass=0;strokeWidth=1;shadow=0;" vertex="1" parent="1">
          <mxGeometry x="70" y="460" width="270" height="60" as="geometry" />
        </mxCell>
        <mxCell id="IaWRKNGKsvZzhaCaoYAj-18" value="" style="edgeStyle=orthogonalEdgeStyle;rounded=0;orthogonalLoop=1;jettySize=auto;html=1;" edge="1" parent="1" source="IaWRKNGKsvZzhaCaoYAj-19" target="IaWRKNGKsvZzhaCaoYAj-21">
          <mxGeometry relative="1" as="geometry" />
        </mxCell>
        <mxCell id="IaWRKNGKsvZzhaCaoYAj-19" value="Compute values to replace masked elements" style="rounded=1;whiteSpace=wrap;html=1;fontSize=12;glass=0;strokeWidth=1;shadow=0;" vertex="1" parent="1">
          <mxGeometry x="70" y="560" width="270" height="60" as="geometry" />
        </mxCell>
        <mxCell id="IaWRKNGKsvZzhaCaoYAj-20" value="" style="edgeStyle=orthogonalEdgeStyle;rounded=0;orthogonalLoop=1;jettySize=auto;html=1;" edge="1" parent="1" source="IaWRKNGKsvZzhaCaoYAj-21" target="IaWRKNGKsvZzhaCaoYAj-22">
          <mxGeometry relative="1" as="geometry" />
        </mxCell>
        <mxCell id="IaWRKNGKsvZzhaCaoYAj-21" value="Replace masked values" style="rounded=1;whiteSpace=wrap;html=1;fontSize=12;glass=0;strokeWidth=1;shadow=0;" vertex="1" parent="1">
          <mxGeometry x="70" y="660" width="270" height="60" as="geometry" />
        </mxCell>
        <mxCell id="IaWRKNGKsvZzhaCaoYAj-22" value="Write beamformed data" style="rounded=1;whiteSpace=wrap;html=1;fontSize=12;glass=0;strokeWidth=1;shadow=0;" vertex="1" parent="1">
          <mxGeometry x="70" y="760" width="270" height="60" as="geometry" />
        </mxCell>
      </root>
    </mxGraphModel>
  </diagram>
</mxfile>
